<svg width="36" height="37" viewBox="0 0 36 37" fill="none" xmlns="http://www.w3.org/2000/svg">
<path d="M1.11987 12.9195C1.25387 15.7304 2.13401 21.6864 2.90402 25.1408C3.57492 28.1528 3.40972 35.4628 3.40972 35.4628C3.94019 36.3615 15.5381 36.9546 18.7026 36.3377C21.7909 35.7355 30.7823 37.1418 31.8561 36.2046C31.8561 36.2046 34.012 27.5175 33.9367 24.4275C33.8697 21.6845 35.0775 13.5887 35.0775 13.5887C32.6619 13.0535 20.3133 13.7218 17.2259 13.3207C12.2607 12.7855 5.54996 14.391 1.11987 12.9195" stroke="#1F2548" stroke-width="0.6318" stroke-linecap="round" stroke-linejoin="round"/>
<path fill-rule="evenodd" clip-rule="evenodd" d="M7.85132 13.4C8.32489 11.9798 8.66722 9.47827 9.54461 8.19307C10.6267 6.50303 11.4719 5.04984 12.6219 3.35888C14.9861 0.0449021 19.4501 0.212896 22.6954 2.10765C25.1302 3.52779 26.0746 4.40357 26.684 7.10799C27.0218 8.93389 28.3397 11.4327 28.6793 13.2577C28.0708 13.1897 26.1618 13.2292 25.5533 13.2953C24.8081 10.1842 24.4529 6.4351 22.4256 3.93355C19.9907 1.02533 17.8615 0.0458201 14.886 2.88611C13.5351 4.23833 12.8238 5.35461 12.3512 7.1796C11.8776 9.14044 11.4389 11.3721 12.3135 13.1558C10.4248 13.3669 9.65015 13.5533 7.85132 13.4" fill="#1F2548"/>
<path fill-rule="evenodd" clip-rule="evenodd" d="M19.4217 30.3959V30.3959C19.3877 30.3959 19.3501 30.3932 19.3024 30.3904C19.2189 30.3849 19.1051 30.3775 18.9289 30.3775C18.5865 30.3775 18.4479 30.2784 18.3461 30.1857C18.336 30.1765 18.3268 30.1692 18.3204 30.1637L18.1616 30.0397C17.8027 29.7597 17.432 29.4706 17.0704 29.1814C16.9767 29.107 16.8519 28.984 16.8473 28.7802V28.7793C16.8428 28.3983 16.8758 28.0018 16.9483 27.5657C16.9804 27.3665 17.0887 27.2518 17.2897 27.2059C17.4109 27.1792 17.5274 27.1756 17.6348 27.1756C17.6623 27.1756 17.6899 27.1756 17.7174 27.1756C17.7431 27.1756 17.7697 27.1765 17.7963 27.1765C17.8486 27.1765 17.889 27.1756 17.9266 27.1728C17.9872 27.1691 18.0414 27.1655 18.09 27.1627C18.3231 27.148 18.4204 27.1416 18.4966 27.1416C18.5544 27.1416 18.5966 27.1453 18.6682 27.1508C18.7444 27.1572 18.8609 27.1664 19.0757 27.1774C19.5786 27.2022 20.0807 27.2637 20.5662 27.3243C20.6983 27.3399 20.8149 27.3601 20.8947 27.439C20.9782 27.5216 20.9938 27.641 21.0039 27.7668C21.0205 27.966 21.0131 28.111 21.0067 28.2524C21.0012 28.3873 20.9948 28.5149 21.0085 28.6893C21.0287 28.9345 20.8075 29.1676 20.6754 29.3072L20.6598 29.3237C20.5864 29.4017 20.5102 29.4862 20.4303 29.5752C20.2092 29.8222 19.9586 30.1021 19.6906 30.2977C19.5997 30.3638 19.5364 30.3959 19.4217 30.3959M17.0924 28.7756C17.0952 28.8546 17.1328 28.917 17.2237 28.9895C17.5834 29.2778 17.9542 29.567 18.3121 29.8469L18.4718 29.9709C18.4847 29.981 18.4975 29.9929 18.5104 30.0039C18.57 30.0581 18.6517 30.1324 18.9289 30.1324C19.1124 30.1324 19.2317 30.1398 19.3189 30.1453C19.3621 30.148 19.396 30.1508 19.4217 30.1508C19.4648 30.1508 19.4795 30.149 19.5456 30.1003C19.7934 29.9195 20.0247 29.6615 20.2477 29.4118C20.3294 29.3209 20.4056 29.2356 20.4817 29.1548L20.4973 29.1382C20.5882 29.0428 20.7754 28.8454 20.7644 28.7086C20.7497 28.5195 20.7561 28.3781 20.7626 28.2414C20.7681 28.1018 20.7745 27.9696 20.7598 27.786C20.7561 27.7456 20.7479 27.6382 20.7222 27.6134C20.6956 27.5868 20.5845 27.5731 20.5368 27.5675C20.055 27.5079 19.5575 27.4464 19.0638 27.4225C18.8454 27.4115 18.727 27.4014 18.648 27.3959C18.581 27.3904 18.5443 27.3876 18.4966 27.3876C18.4278 27.3876 18.3332 27.3931 18.1056 27.4078C18.057 27.4106 18.0028 27.4142 17.9414 27.4179C17.8991 27.4207 17.8532 27.4216 17.7963 27.4216C17.7688 27.4216 17.7422 27.4216 17.7147 27.4207C17.688 27.4207 17.6614 27.4207 17.6348 27.4207C17.5412 27.4207 17.4412 27.4234 17.343 27.4455C17.2301 27.4712 17.2053 27.5134 17.1906 27.6052C17.1906 27.6052 17.1906 27.6052 17.1906 27.6061C17.1209 28.0265 17.0887 28.4094 17.0924 28.7756" fill="#1F2548"/>
<path fill-rule="evenodd" clip-rule="evenodd" d="M26.3406 26.9046C26.336 26.8504 26.3305 26.7834 26.3241 26.6999C26.3241 26.6989 26.3232 26.698 26.3232 26.6971C26.3232 26.6962 26.3232 26.6962 26.3232 26.6953C26.1681 25.3541 25.968 24.1258 25.7303 23.0425C25.4935 21.9676 25.3008 21.4076 25.2292 21.2166C25.2283 21.2157 25.2283 21.2148 25.2273 21.213V21.2121C25.2283 21.2102 25.231 21.2038 25.2429 21.1937C25.3512 21.101 25.4485 20.9963 25.5431 20.8953C25.5935 20.8412 25.6458 20.7843 25.6982 20.7319C25.6982 20.7319 25.6982 20.7319 25.6991 20.731C25.9083 20.518 26.0157 20.2426 26.0175 19.9131V19.9122C26.0175 19.7019 26.0056 19.4816 25.8578 19.298C25.7257 19.1346 25.5394 19.0089 25.2879 18.9134C25.0511 18.8216 24.8345 18.8574 24.6253 19.0235V19.0245C24.5464 19.0878 24.4803 19.1612 24.4169 19.2319C24.3756 19.2778 24.3362 19.3228 24.294 19.3641C24.2417 19.3403 24.1939 19.3283 24.149 19.3164C24.1407 19.3136 24.1315 19.3118 24.1233 19.309C23.9727 19.2686 23.59 19.1713 23.278 19.1466C23.2 19.1401 23.1238 19.1337 23.0476 19.1273C22.5016 19.0795 21.9858 19.0355 21.414 19.0548C20.945 19.0382 19.5307 19.0254 18.3936 19.0144C17.7392 19.0089 17.1748 19.0033 16.9123 18.9988C16.4635 18.9914 16.0074 18.9776 15.566 18.9648C15.32 18.9574 15.0658 18.9501 14.8161 18.9437C14.7464 18.9418 14.6766 18.94 14.6069 18.9382C14.2829 18.9281 13.947 18.918 13.6175 18.9235C13.3789 18.9272 13.2623 18.8381 13.1183 18.6609C12.9292 18.4268 12.708 18.436 12.5162 18.4746C12.3051 18.5177 12.1216 18.6104 11.9545 18.7573C11.804 18.8904 11.6847 19.0511 11.5746 19.2035C11.4617 19.3604 11.4149 19.5165 11.4314 19.6808C11.4452 19.8139 11.5011 19.9526 11.6067 20.1169V20.1169C11.7324 20.3078 11.8995 20.4575 12.061 20.6016C12.1206 20.6548 12.1785 20.7062 12.2326 20.7586C12.2124 20.8357 12.1913 20.9128 12.1711 20.989C12.1115 21.2139 12.049 21.4461 12.0013 21.6802C11.9701 21.839 11.9343 21.9997 11.8995 22.1548C11.8554 22.3504 11.8113 22.5514 11.7728 22.7525C11.703 22.9865 11.4479 24.3351 11.2056 25.6267C11.1717 25.8085 11.1469 25.9398 11.1368 25.993C11.0762 26.3088 11.0129 26.6843 11.011 27.0726C11.0074 27.5059 11.1634 27.7941 11.5167 28.0062C12.1748 28.4009 13.1357 28.8783 13.6579 29.0701C14.1159 29.2363 14.7078 29.4346 15.2824 29.6145C15.8734 29.799 16.3543 29.9349 16.6021 29.9863C16.6104 29.9881 16.6186 29.9891 16.6269 29.9891C16.6425 29.9891 16.6572 29.9854 16.6709 29.9799C16.7077 30.0322 16.7453 30.0818 16.7848 30.1304C16.7848 30.1313 16.7857 30.1323 16.7866 30.1332C16.8261 30.1791 17.1785 30.5784 17.3859 30.717C17.4355 30.7611 17.5089 30.7978 17.5805 30.8327C17.6025 30.8428 17.6227 30.8529 17.641 30.863C17.9366 31.019 18.2018 31.0925 18.4679 31.0925C18.4955 31.0925 18.523 31.0925 18.5515 31.0907H18.5524C18.5524 31.0907 18.5524 31.0907 18.5533 31.0907C18.6185 31.0851 18.7901 31.0879 18.9562 31.0907C19.0682 31.0925 19.1774 31.0943 19.2673 31.0943C19.3527 31.0943 19.4206 31.0934 19.4619 31.0888C19.516 31.0824 19.583 31.0842 19.6418 31.0861H19.6427C19.9758 31.0907 20.2961 31.0659 20.621 31.0108C20.7982 30.9814 20.9404 30.9006 21.0551 30.7657C21.3011 30.4747 21.4883 30.1938 21.7013 29.7963L21.7545 29.7026C21.7627 29.7045 21.7701 29.7045 21.7784 29.7045C21.793 29.7045 21.8086 29.7026 21.8224 29.6962L22.4511 29.4511C22.4538 29.4502 22.4557 29.4493 22.4575 29.4484C22.7035 29.3364 22.9357 29.2427 23.2037 29.1335C23.4735 29.0242 23.7791 28.8994 24.1609 28.7323C24.7235 28.4854 25.2604 28.1815 25.7798 27.8877L25.8799 27.8308C26.0258 27.7491 26.2764 27.5793 26.3213 27.37C26.3213 27.37 26.3213 27.37 26.3213 27.3691C26.3635 27.169 26.3617 27.1488 26.3406 26.9046M21.6755 29.5034L21.5544 29.7137C21.5544 29.7146 21.5535 29.7155 21.5535 29.7164C21.347 30.1029 21.1653 30.3755 20.9266 30.6574C20.8376 30.762 20.7321 30.8217 20.5935 30.8455C20.2778 30.8988 19.9676 30.9227 19.6454 30.9181C19.5812 30.9162 19.5087 30.9144 19.4435 30.9217C19.3692 30.93 19.1517 30.9263 18.9589 30.9236C18.7818 30.9199 18.6157 30.9181 18.5414 30.9227V30.9227C18.2789 30.9383 18.0173 30.8722 17.719 30.7143C17.6979 30.7033 17.6759 30.6922 17.6548 30.6821C17.5942 30.6518 17.5263 30.6188 17.4969 30.5903C17.4933 30.5867 17.4887 30.583 17.4841 30.5802C17.3317 30.4811 17.0546 30.1846 16.9142 30.0239C16.5948 29.6264 16.3516 29.0876 16.1955 28.7167C16.0909 28.4725 16.0643 28.1971 16.1175 27.9208C16.1864 27.5729 16.2864 27.224 16.3837 26.8871C16.4259 26.7412 16.47 26.5906 16.5103 26.441C16.5443 26.3171 16.5783 26.194 16.6113 26.0701C16.7104 25.7057 16.8132 25.3293 16.916 24.9593C16.938 24.8813 16.9582 24.8033 16.9784 24.7271C17.0986 24.2745 17.2124 23.8476 17.5098 23.485C17.6603 23.3023 17.7989 23.2216 17.9733 23.2142C18.0825 23.2087 18.1944 23.2023 18.3018 23.1968C18.8011 23.1683 19.3187 23.1389 19.8235 23.2252C19.8685 23.2335 19.9134 23.2399 19.9575 23.2463C20.1392 23.273 20.3117 23.2987 20.4678 23.4033C20.5972 23.4905 20.6798 23.6273 20.766 23.7714C20.7816 23.7971 20.7982 23.8228 20.8138 23.8485C20.8431 23.9036 20.9367 24.2093 21.0441 24.6316C21.1019 24.8593 21.1588 25.0915 21.2139 25.3164C21.3149 25.7231 21.4177 26.1445 21.5287 26.5557C21.5764 26.7329 21.6297 26.911 21.682 27.0827C21.8077 27.4976 21.9371 27.9263 21.9821 28.3697C22.016 28.7121 21.8462 29.1794 21.6755 29.5034M26.0818 27.3186C26.0643 27.3994 25.9377 27.5169 25.7596 27.6179L25.6596 27.6739C25.1456 27.9649 24.6133 28.265 24.0627 28.5074C23.6836 28.6736 23.3799 28.7975 23.1109 28.9067C22.842 29.016 22.6089 29.1105 22.3593 29.2234L21.9142 29.3979C21.9747 29.2629 22.0271 29.1243 22.0656 28.993C22.139 28.7479 22.1666 28.5322 22.1491 28.3532C22.1023 27.8933 21.9702 27.4563 21.8426 27.034C21.7912 26.8642 21.738 26.687 21.6912 26.5126C21.581 26.1022 21.4773 25.6827 21.3773 25.276C21.3222 25.0511 21.2644 24.8189 21.2066 24.5903C21.1653 24.4269 21.1001 24.1809 21.0432 23.9973V23.9973C21.0432 23.9973 21.0469 23.9605 21.0946 23.8844C21.1423 23.8072 21.2203 23.7164 21.2203 23.7164C21.2203 23.7164 21.2736 23.832 21.3736 23.8981C21.4727 23.9642 21.5783 23.9945 21.7233 23.967C21.8692 23.9394 21.9371 23.832 21.9573 23.7274C21.9775 23.6236 21.9491 23.3895 21.8729 23.3299C21.6544 23.1343 21.4672 23.1876 21.3653 23.2463C21.2626 23.3051 21.191 23.4465 21.1818 23.5309C21.1717 23.6154 21.1708 23.619 21.1267 23.6769C21.0818 23.7347 20.9918 23.8421 20.9918 23.8421V23.8421C20.9799 23.8082 20.9689 23.7825 20.9597 23.7659C20.9597 23.7659 20.9588 23.765 20.9588 23.7641L20.9579 23.7632C20.9423 23.7375 20.9257 23.7108 20.9101 23.6842C20.8174 23.5309 20.722 23.3721 20.5614 23.2647C20.3742 23.138 20.1741 23.1086 19.9813 23.0802C19.9391 23.0738 19.8951 23.0673 19.8519 23.06C19.3279 22.97 18.8011 23.0003 18.2917 23.0288C18.1853 23.0352 18.0742 23.0416 17.9659 23.0462C17.7429 23.0563 17.5621 23.1582 17.3804 23.3785C17.3207 23.4511 17.2675 23.5254 17.2207 23.6025V23.6025C17.2207 23.6025 17.2005 23.5823 17.1298 23.5447C17.0582 23.5071 16.9968 23.4832 16.9922 23.4235C16.9876 23.3629 16.9848 23.3023 16.9242 23.2418C16.8637 23.1812 16.7673 23.1261 16.6462 23.1114C16.5259 23.0967 16.425 23.1279 16.3718 23.1555C16.3194 23.1821 16.2561 23.2399 16.2267 23.306C16.1965 23.3721 16.1533 23.5245 16.2203 23.6916C16.2203 23.6916 16.2708 23.832 16.4764 23.8642C16.682 23.8954 16.8554 23.7962 16.893 23.7558C16.9307 23.7145 16.9839 23.6576 16.9857 23.5631C16.9857 23.5631 17.0537 23.5713 17.1766 23.6778V23.6778C16.9995 23.9954 16.9068 24.3443 16.8169 24.6839C16.7967 24.7592 16.7756 24.8372 16.7545 24.9143C16.6508 25.2843 16.5489 25.6616 16.4498 26.026C16.4158 26.15 16.3828 26.273 16.3488 26.3969C16.3084 26.5447 16.2653 26.6953 16.2231 26.8412C16.1249 27.1809 16.023 27.5334 15.9523 27.8887C15.8927 28.198 15.9239 28.5074 16.0414 28.7819C16.1506 29.0435 16.3038 29.3868 16.4966 29.71C15.9028 29.5622 14.6298 29.1619 13.7423 28.8397C13.2972 28.6763 12.3684 28.2311 11.6425 27.7959C11.3653 27.6289 11.2533 27.4205 11.2561 27.0735C11.2579 26.7063 11.3185 26.3446 11.3782 26.0398C11.3883 25.9857 11.413 25.8544 11.447 25.6717C11.5938 24.8859 11.938 23.0453 12.0096 22.8186V22.8176C12.0105 22.8149 12.0114 22.8121 12.0114 22.8103C12.0123 22.8085 12.0123 22.8066 12.0123 22.8057C12.0133 22.8048 12.0133 22.8048 12.0133 22.8048C12.05 22.6056 12.0949 22.4036 12.139 22.2081C12.1739 22.052 12.2097 21.8895 12.2418 21.7289C12.2877 21.5031 12.3492 21.2736 12.4088 21.0523C12.4345 20.9532 12.462 20.8513 12.4877 20.7512C12.4877 20.7503 12.4877 20.7494 12.4877 20.7485C12.4887 20.7457 12.4887 20.7439 12.4896 20.7411C12.4896 20.7393 12.4905 20.7374 12.4905 20.7356C12.4905 20.7338 12.4905 20.7319 12.4905 20.7301C12.4914 20.7283 12.4914 20.7255 12.4914 20.7237C12.4914 20.7218 12.4914 20.72 12.4914 20.7182C12.4914 20.7163 12.4914 20.7136 12.4914 20.7117C12.4905 20.7099 12.4905 20.7081 12.4905 20.7062C12.4905 20.7044 12.4896 20.7026 12.4896 20.6998C12.4896 20.698 12.4887 20.6961 12.4887 20.6943C12.4877 20.6925 12.4877 20.6906 12.4868 20.6888C12.4868 20.687 12.4859 20.6842 12.485 20.6824C12.485 20.6805 12.4841 20.6796 12.4832 20.6778C12.4832 20.6759 12.4822 20.6732 12.4813 20.6714C12.4804 20.6695 12.4795 20.6686 12.4786 20.6668C12.4776 20.6649 12.4767 20.6631 12.4758 20.6603C12.4749 20.6594 12.474 20.6576 12.4731 20.6567C12.4721 20.6548 12.4703 20.653 12.4694 20.6512C12.4685 20.6493 12.4675 20.6475 12.4657 20.6466C12.4648 20.6447 12.4639 20.6429 12.462 20.642C12.4611 20.6401 12.4593 20.6383 12.4575 20.6365C12.4575 20.6356 12.4565 20.6356 12.4565 20.6346C12.3822 20.5594 12.3014 20.4878 12.2243 20.4189C12.0674 20.2794 11.9196 20.1472 11.8123 19.9829C11.7287 19.8525 11.6847 19.7488 11.6755 19.656C11.6654 19.5523 11.6966 19.4541 11.7737 19.3467C11.9977 19.0346 12.1986 18.7904 12.5648 18.7151C12.7456 18.6784 12.8374 18.7032 12.9283 18.8152C13.1036 19.0309 13.289 19.1741 13.6221 19.1686C13.9452 19.1631 14.2783 19.1732 14.5995 19.1833C14.6693 19.1851 14.74 19.1869 14.8097 19.1897C15.0593 19.1952 15.3126 19.2035 15.5586 19.2099C16.001 19.2237 16.458 19.2365 16.9086 19.2439C17.1711 19.2485 17.7365 19.254 18.3908 19.2595C19.5307 19.2705 20.9478 19.2833 21.4094 19.2999C21.4112 19.2999 21.4131 19.2999 21.414 19.2999C21.4158 19.2999 21.4167 19.2999 21.4186 19.2999C21.9766 19.2806 22.4869 19.3246 23.0265 19.3715C23.1027 19.3779 23.1798 19.3843 23.2578 19.3907H23.2587C23.5506 19.4137 23.9149 19.5073 24.059 19.5459C24.0682 19.5486 24.0774 19.5514 24.0865 19.5532C24.1434 19.5688 24.1921 19.5817 24.2426 19.6147C24.2875 19.645 24.3463 19.6414 24.3885 19.6074C24.4693 19.5413 24.5362 19.4669 24.6005 19.3953C24.6592 19.3292 24.7152 19.2668 24.7785 19.2154C24.919 19.1043 25.0447 19.0823 25.1998 19.1429C25.1998 19.1429 25.1998 19.1429 25.2007 19.1429C25.4136 19.2237 25.5614 19.3219 25.6669 19.4513C25.7642 19.5734 25.7725 19.7387 25.7725 19.9122C25.7707 20.1793 25.6899 20.3904 25.5238 20.5594C25.4687 20.6144 25.4155 20.6723 25.3632 20.7283C25.2695 20.8283 25.1814 20.9238 25.0823 21.0073C25.0823 21.0083 25.0823 21.0083 25.0814 21.0083C24.9887 21.09 24.9584 21.2001 24.9997 21.3039C25.0548 21.4507 25.2521 22.0089 25.4907 23.0949C25.7266 24.1698 25.9248 25.389 26.079 26.721C26.0864 26.8045 26.0919 26.8715 26.0965 26.9257C26.1157 27.1533 26.1157 27.1543 26.0818 27.3186" fill="#1F2548"/>
</svg>
