<svg width="67" height="44" viewBox="0 0 67 44" fill="none" xmlns="http://www.w3.org/2000/svg">
<path fill-rule="evenodd" clip-rule="evenodd" d="M52.5255 16.175C52.8655 16.175 53.0235 16.2722 52.9974 16.4666C52.9712 16.6621 52.9581 16.9159 52.9581 17.2269C52.9581 17.2799 52.9516 17.3641 52.9385 17.4807C52.9254 17.5974 52.8928 17.7594 52.8394 17.9667C52.787 18.1752 52.7227 18.4614 52.6443 18.8253C52.5647 19.1893 52.447 19.6429 52.2901 20.1894C51.7909 22.1895 51.2536 23.9564 50.6771 25.4889C50.3883 26.2439 50.1071 26.8865 49.8314 27.4178C49.5556 27.9513 49.2875 28.3995 49.026 28.7635C48.3175 29.7506 47.426 30.2442 46.3504 30.2442C45.145 30.2442 44.1096 29.621 43.2443 28.3736C42.4574 27.204 42.064 25.7881 42.064 24.126C42.064 22.7749 42.1621 21.4109 42.3593 20.0339C42.5555 18.6558 42.8116 17.4224 43.1266 16.3305C43.2301 15.9417 43.3554 15.5389 43.4993 15.122C43.6432 14.7073 43.8208 14.3239 44.0312 13.9729C44.2404 13.6219 44.4758 13.3368 44.7385 13.1165C45 12.8951 45.315 12.7838 45.6823 12.7838C46.4158 12.7838 47.098 13.0571 47.7279 13.6035C48.0157 13.8887 48.2511 14.2397 48.4353 14.6544C48.6183 15.0702 48.7099 15.4352 48.7099 15.7463C48.7099 16.2657 48.6587 16.8371 48.5551 17.4602C48.4505 18.0845 48.3208 18.7022 48.165 19.3124C48.0091 19.9226 47.8337 20.481 47.6386 20.9875C47.4446 21.494 47.243 21.9033 47.0348 22.2165C46.9051 22.4498 46.7231 22.6831 46.4899 22.9175C46.2555 23.1507 46.0158 23.3397 45.7684 23.4823C45.521 23.6259 45.2878 23.7037 45.0676 23.7167C44.8464 23.7296 44.6578 23.6324 44.502 23.424C44.4497 23.6324 44.4366 23.9057 44.4638 24.2415C44.4889 24.5796 44.5281 24.9111 44.5815 25.2362C44.6338 25.5613 44.6992 25.8659 44.7777 26.1521C44.8562 26.4383 44.9216 26.6456 44.975 26.7752C45.1788 27.218 45.4469 27.5485 45.7782 27.7688C46.1106 27.9902 46.3416 28.1004 46.4692 28.1004C46.7307 28.1004 47.0021 27.8714 47.3432 27.5571C47.7672 27.1673 48.4015 26.1661 48.7219 25.3507C49.2199 24.0806 49.1426 24.3463 49.694 23.073C50.2444 21.8007 50.7425 20.4356 51.1882 18.9809C51.2667 18.6957 51.3386 18.416 51.4051 18.1428C51.4694 17.8706 51.5424 17.5909 51.6209 17.3047C51.7517 16.5519 52.0536 16.175 52.5255 16.175M46.3504 15.3564C46.1455 15.9277 45.9602 16.4418 45.7945 16.8954C45.6278 17.3511 45.4687 17.7918 45.3139 18.2205C45.1602 18.6493 45.0327 19.0845 44.9303 19.5273C44.8278 19.9691 44.7635 20.4626 44.7385 21.008C45.072 20.9821 45.3608 20.7488 45.6049 20.306C45.8479 19.8643 46.0092 19.4625 46.0866 19.0975C46.1891 18.578 46.2981 18.0531 46.4136 17.5196C46.5291 16.9872 46.5869 16.4353 46.5869 15.864C46.5869 15.7333 46.5673 15.5702 46.528 15.3758C46.4888 15.1814 46.4299 15.1749 46.3504 15.3564" fill="#1F2548"/>
<path fill-rule="evenodd" clip-rule="evenodd" d="M48.6558 25.506C49.2857 24.0599 50.296 21.1633 50.3745 20.8523C50.454 20.5402 50.5717 20.1114 50.7287 19.5649C51.0687 18.2927 51.2409 17.2667 51.2409 16.4869C51.2409 16.4351 51.2256 16.3109 51.2006 16.1165C51.1744 15.9221 51.0959 15.6434 50.9652 15.2795C50.7025 14.6552 50.5717 14.0969 50.5717 13.6033C50.5717 13.0568 50.624 12.6162 50.7287 12.2782C50.8333 11.9401 50.9652 11.6734 51.1221 11.479C51.279 11.2835 51.4567 11.1474 51.6529 11.0696C51.8501 10.9919 52.0398 10.9519 52.2229 10.9519C52.3275 10.9519 52.4594 10.9714 52.6163 11.0113C52.7743 11.0502 52.9247 11.1344 53.0686 11.2651C53.2124 11.3947 53.3443 11.5826 53.462 11.83C53.5797 12.0762 53.6517 12.3948 53.6789 12.7836C53.704 13.045 53.6789 13.4986 53.5993 14.1487C53.547 14.5127 53.5209 14.7848 53.5209 14.9663V15.395C53.547 15.448 53.6517 15.5387 53.8358 15.6683C54.0189 15.799 54.3993 16.0063 54.9758 16.2914C56.3916 16.9675 57.1 17.838 57.1 18.9029C57.1 18.9558 57.0934 19.053 57.0803 19.1956C57.0673 19.3381 57.0542 19.553 57.0411 19.8382C57.0269 20.1244 56.9942 20.5142 56.943 21.0078C56.8896 21.5014 56.8242 22.1375 56.7458 22.9172C56.6934 23.4637 56.6477 23.9173 56.6084 24.2813C56.5692 24.6452 56.5354 24.9444 56.5103 25.1777C56.4831 25.411 56.4635 25.6064 56.4515 25.762C56.4373 25.9175 56.4319 26.0741 56.4319 26.2296C56.4319 26.8538 56.4962 27.2426 56.6281 27.3982C56.7588 27.5558 56.8896 27.6336 57.0215 27.6336C57.0466 27.6066 57.1065 27.5353 57.198 27.4187C57.2896 27.302 57.4073 27.0936 57.5522 26.7955C57.6961 26.4964 57.8672 26.0935 58.0634 25.587C58.2596 25.0805 58.5026 24.4238 58.7914 23.6192C59.6818 21.0726 60.2322 19.1113 60.4425 17.7332C60.521 17.1371 60.679 16.7461 60.9145 16.5647C61.151 16.3832 61.3733 16.2914 61.5836 16.2914C61.6872 16.2914 61.8648 16.3508 62.1144 16.4664C62.3629 16.5841 62.4882 16.9157 62.4882 17.4611C62.4882 18.3704 61.9378 20.5402 60.836 23.9702C60.3902 25.2684 59.9968 26.3074 59.6568 27.0871C59.3156 27.8669 59.0072 28.4641 58.7326 28.8799C58.4568 29.2957 58.2073 29.569 57.9849 29.6986C57.7615 29.8292 57.5577 29.894 57.3757 29.894C56.3 29.894 55.4216 29.2957 54.7404 28.1002C54.6347 27.9706 54.5366 27.7114 54.4451 27.3204C54.3524 26.9316 54.2805 26.2555 54.2293 25.2954V22.2941V18.9418C54.2293 18.891 54.1759 18.7668 54.0713 18.5713C53.9666 18.3769 53.6789 18.1242 53.2059 17.811C53.049 18.6437 51.6779 22.9162 51.024 24.5243" fill="#1F2548"/>
<path fill-rule="evenodd" clip-rule="evenodd" d="M66.2404 27.9832C66.2404 28.1463 66.174 28.3655 66.0443 28.6409C65.9124 28.9174 65.7402 29.1852 65.5277 29.4455C65.3141 29.7047 65.0765 29.925 64.8149 30.1032C64.5523 30.2814 64.2907 30.37 64.028 30.37C63.7981 30.37 63.5943 30.3052 63.4134 30.1767C63.2335 30.0471 63.1431 29.8516 63.1431 29.5913C63.1431 28.9422 63.3643 28.3731 63.8068 27.8871C64.2493 27.3989 64.7495 27.1559 65.3064 27.1559C65.4699 27.1559 65.6661 27.2132 65.8971 27.3266C66.1249 27.44 66.2404 27.6592 66.2404 27.9832" fill="#1F2548"/>
<path fill-rule="evenodd" clip-rule="evenodd" d="M11.4678 8.38951C11.8351 8.44243 12.0182 8.63683 12.0182 8.97379V9.24703C12.0182 9.37663 11.979 9.49435 11.9005 9.59803C11.822 9.70171 11.6509 9.80539 11.3893 9.91015C11.1267 10.0138 10.5371 10.1434 9.61942 10.299C9.01564 10.4296 8.51867 10.5074 8.12523 10.5322C7.73179 10.5592 7.39067 10.5722 7.10186 10.5722L5.8834 10.65C5.83 11.0139 5.77115 11.5917 5.70684 12.3844C5.64036 13.1772 5.54228 14.1578 5.41149 15.3264C5.30578 16.3146 5.22731 17.1192 5.175 17.7434C5.12159 18.3666 5.07691 18.8601 5.03767 19.2241C4.99844 19.588 4.97119 19.8472 4.9592 20.0038C4.94504 20.1594 4.93959 20.263 4.93959 20.3149C4.93959 21.5623 4.94504 22.5699 4.9592 23.3356C4.97119 24.1024 4.9919 24.6284 5.01806 24.9135C5.09653 25.7462 5.20769 26.2916 5.35264 26.5508C5.4965 26.8111 5.59459 26.9407 5.6469 26.9407C5.75153 26.8888 5.85724 26.7981 5.96187 26.6674C6.0665 26.5378 6.19074 26.3553 6.33569 26.122C6.47955 25.8888 6.65611 25.5507 6.86645 25.109C7.15417 24.407 7.4626 23.5182 7.79064 22.4392C8.11869 21.3614 8.45219 20.1075 8.79331 18.6776C8.87178 18.3406 8.95025 18.0544 9.02981 17.8212C9.10828 17.5868 9.17258 17.3794 9.22598 17.1969C9.2783 17.0673 9.3633 16.8988 9.4821 16.6904C9.5998 16.483 9.78944 16.3783 10.0521 16.3783C10.2875 16.3783 10.5109 16.4636 10.7202 16.6321C10.9305 16.8016 11.0351 17.1062 11.0351 17.5479C11.0351 18.0415 10.9174 18.7888 10.6809 19.7889C10.4455 20.789 10.0652 22.0688 9.54095 23.6283C8.8587 25.6285 8.19716 27.1027 7.55524 28.0509C6.91222 29.0002 6.2376 29.4733 5.5292 29.4733C4.53198 29.4733 3.73312 28.7205 3.13043 27.2128C2.60512 25.8628 2.34355 24.1867 2.34355 22.1854C2.34355 21.5364 2.42856 20.29 2.59967 18.4443C2.76969 16.5997 3.03779 14.0271 3.40507 10.7277C3.16966 10.7796 2.94624 10.7731 2.73699 10.7083C2.52665 10.6435 2.38279 10.5852 2.30432 10.5322C2.25201 10.5074 2.18662 10.4545 2.10706 10.3767C2.02859 10.299 1.88582 10.2212 1.67547 10.1434C1.30819 10.0138 1.07932 9.85075 0.986687 9.65635C0.895139 9.46087 0.849365 9.29887 0.849365 9.16927C0.849365 9.09043 0.895139 8.95435 0.986687 8.75995C1.07932 8.56447 1.38666 8.41543 1.91088 8.31175C2.06782 8.28583 2.19969 8.26639 2.30432 8.25343C2.40895 8.24047 2.51357 8.22751 2.61929 8.21455C2.72391 8.20051 2.84816 8.18863 2.99202 8.17567C3.13697 8.16271 3.3266 8.14327 3.5631 8.11627C3.58817 7.83115 3.61541 7.48015 3.64157 7.06435C3.66773 6.64855 3.69388 6.16795 3.72004 5.62255L3.52387 4.95943C3.52387 4.80391 3.53694 4.68727 3.5631 4.60843C3.77235 4.19371 4.1004 3.98635 4.54615 3.98635C5.01806 3.98635 5.68614 4.25851 6.55148 4.80391C6.70951 4.93459 6.78798 5.09011 6.78798 5.27155V6.16795V6.28459C6.73458 6.57079 6.67572 6.86347 6.61033 7.16155C6.54494 7.46071 6.47301 7.79227 6.39454 8.15623H6.72913C6.76836 8.15623 6.80106 8.16271 6.82721 8.17567C6.85337 8.18863 6.91876 8.20051 7.02339 8.21455C7.12801 8.22751 7.36451 8.23399 7.73179 8.23399C8.07183 8.23399 8.34102 8.24047 8.53719 8.25343C8.73446 8.26639 8.94371 8.27935 9.16713 8.29231C9.38946 8.30527 9.67173 8.31823 10.0129 8.33119C10.3529 8.34415 10.839 8.36467 11.4678 8.38951" fill="#1F2548"/>
<path fill-rule="evenodd" clip-rule="evenodd" d="M18.2711 16.2619C18.6122 16.2619 18.7692 16.3591 18.7441 16.5545C18.7168 16.7489 18.7038 17.0017 18.7038 17.3138C18.7038 17.3667 18.6972 17.4509 18.6841 17.5676C18.6711 17.6842 18.6384 17.8473 18.5861 18.0547C18.5337 18.2631 18.4684 18.5482 18.3899 18.9122C18.3103 19.2761 18.1926 19.7308 18.0357 20.2762C17.5376 22.2775 16.9992 24.0433 16.4227 25.5769C16.1339 26.3307 15.8527 26.9733 15.577 27.5057C15.3023 28.0382 15.0331 28.4864 14.7716 28.8503C14.0632 29.8375 13.1717 30.331 12.0971 30.331C10.8906 30.331 9.85523 29.7079 8.98988 28.4605C8.20301 27.2908 7.80957 25.8749 7.80957 24.2128C7.80957 22.8617 7.90766 21.4977 8.10492 20.1207C8.30218 18.7437 8.55721 17.5093 8.87218 16.4174C8.97572 16.0286 9.10105 15.6257 9.246 15.2099C9.38877 14.7941 9.56642 14.4107 9.77676 14.0597C9.98601 13.7087 10.2225 13.4236 10.4841 13.2033C10.7456 12.9819 11.0606 12.8707 11.4279 12.8707C12.1625 12.8707 12.8447 13.1439 13.4735 13.6893C13.7624 13.9755 13.9978 14.3265 14.1809 14.7423C14.364 15.1581 14.4566 15.521 14.4566 15.8331C14.4566 16.3537 14.4043 16.9239 14.3007 17.5481C14.1961 18.1713 14.0664 18.7891 13.9106 19.3993C13.7547 20.0105 13.5793 20.5689 13.3853 21.0754C13.1902 21.5819 12.9886 21.9913 12.7804 22.3034C12.6507 22.5367 12.4687 22.7699 12.2355 23.0043C12.0012 23.2376 11.7614 23.4266 11.514 23.5691C11.2677 23.7128 11.0334 23.7905 10.8132 23.8035C10.592 23.8165 10.4045 23.7193 10.2487 23.5108C10.1953 23.7193 10.1822 23.9925 10.2094 24.3295C10.2345 24.6675 10.2748 24.998 10.3271 25.3231C10.3794 25.6481 10.4448 25.9538 10.5233 26.2389C10.6018 26.5251 10.6672 26.7325 10.7206 26.8621C10.9244 27.3049 11.1925 27.6364 11.5249 27.8557C11.8562 28.0771 12.0873 28.1883 12.2148 28.1883C12.4774 28.1883 12.7324 27.9928 12.982 27.6029C13.2305 27.2131 13.552 26.7206 13.9455 26.1223C14.3901 25.4203 14.8893 24.4331 15.4396 23.1598C15.99 21.8876 16.4881 20.5235 16.9338 19.0677C17.0123 18.7826 17.0842 18.5029 17.1507 18.2296C17.2161 17.9575 17.288 17.6788 17.3665 17.3926C17.4973 16.6388 17.7992 16.2619 18.2711 16.2619M12.0971 15.4432C11.8922 16.0156 11.7058 16.5286 11.5401 16.9833C11.3734 17.438 11.2132 17.8786 11.0606 18.3074C10.9058 18.7372 10.7783 19.1725 10.6759 19.6142C10.5734 20.0559 10.5091 20.5495 10.4841 21.0949C10.8176 21.0689 11.1064 20.8357 11.3505 20.3929C11.5946 19.9511 11.7548 19.5494 11.8322 19.1843C11.9347 18.6659 12.0437 18.14 12.1592 17.6065C12.2747 17.074 12.3325 16.5221 12.3325 15.9508C12.3325 15.8201 12.3129 15.6581 12.2736 15.4627C12.2344 15.2683 12.1755 15.2618 12.0971 15.4432" fill="#1F2548"/>
<path fill-rule="evenodd" clip-rule="evenodd" d="M29.6767 16.2619C29.7813 16.2619 29.8271 16.3267 29.814 16.4573C29.8009 16.5869 29.7944 16.9239 29.7944 17.4704C29.7944 18.4316 29.2298 20.6013 28.1029 23.9785C27.6572 25.2777 27.2637 26.3167 26.9237 27.0964C26.5826 27.8762 26.2741 28.4669 25.9995 28.8698C25.7238 29.2726 25.4742 29.5394 25.2519 29.669C25.0295 29.7986 24.8257 29.8634 24.6426 29.8634C23.3577 29.8634 22.4923 28.9411 22.0466 27.0964C21.5747 28.1095 21.1812 28.8115 20.8663 29.2003C20.3421 29.9552 19.7263 30.331 19.0179 30.331C18.704 30.331 18.3302 30.2338 17.8975 30.0383C17.4648 29.8439 17.0649 29.4346 16.6987 28.8115C16.1472 27.928 15.8726 26.7843 15.8726 25.3814C15.8726 24.2387 15.963 23.0885 16.1472 21.9319C16.3314 20.7763 16.6453 19.4705 17.091 18.0158C18.1395 14.6127 19.3982 12.9106 20.8663 12.9106C21.3916 12.9106 21.9409 13.1569 22.5185 13.6504C22.5708 13.6774 22.6035 13.7033 22.6166 13.7293C22.6297 13.7552 22.6624 13.7811 22.7158 13.807C22.8727 12.4819 23.0754 10.8251 23.325 8.83793C23.5735 6.84965 23.8688 4.64861 24.2099 2.23265C24.1838 2.02421 24.1903 1.71209 24.2296 1.29629C24.2688 0.880491 24.4715 0.594291 24.8388 0.438771L24.9576 0.399891H25.8611C26.2022 0.399891 26.4572 0.472251 26.6283 0.614811C26.7994 0.757371 26.9498 0.945291 27.0806 1.17965C27.2637 1.46585 27.3291 1.90757 27.2768 2.50481L27.2387 2.54369C27.0022 3.76517 26.7591 5.00609 26.5106 6.26537C26.2611 7.52573 25.9919 8.89625 25.7041 10.3769C25.678 10.5854 25.5788 11.3317 25.4099 12.6179C25.2388 13.9042 24.9957 15.7553 24.6819 18.1713C24.2099 21.731 23.9735 24.0314 23.9735 25.0693C23.9996 25.9019 24.0585 26.4927 24.15 26.8426C24.2426 27.1936 24.3146 27.4215 24.3669 27.5252C24.4977 27.3956 24.6873 27.064 24.9369 26.5316C25.1865 25.9991 25.5995 25.0833 26.176 23.7841C26.6218 22.7699 27.0545 21.731 27.4741 20.6661C27.8926 19.6012 28.2468 18.6001 28.5356 17.6648C28.5617 17.5611 28.601 17.4315 28.6544 17.2749C28.7056 17.1194 28.7721 16.9628 28.8506 16.8073C28.929 16.6517 29.0336 16.5221 29.1655 16.4174C29.2963 16.3148 29.4663 16.2619 29.6767 16.2619V16.2619ZM22.0074 18.7955C22.0597 18.3538 22.0989 18.0417 22.1251 17.8603C22.1512 17.6788 22.1643 17.4833 22.1643 17.2749C22.1643 16.6258 22.0793 16.2424 21.9114 16.1258C21.7436 16.0081 21.6074 15.9508 21.5038 15.9508H21.3273C21.2368 15.9508 21.1071 16.0286 20.9382 16.1841C20.7704 16.3396 20.5764 16.6064 20.3562 16.9833C20.135 17.3602 19.8952 17.938 19.6358 18.7167C18.91 20.8216 18.5471 22.7581 18.5471 24.5239C18.5471 25.174 18.559 25.7129 18.5852 26.1417C18.6114 26.5705 18.6441 26.915 18.6822 27.1742C18.7203 27.4345 18.7661 27.6224 18.8184 27.739C18.8707 27.8557 18.9231 27.941 18.9743 27.9928C19.1552 28.0965 19.3492 27.9539 19.5574 27.5641C19.7655 27.1742 20.0761 26.4085 20.4903 25.2647H20.5295C21.0744 23.8618 21.5017 22.4589 21.8134 21.0549C21.8395 20.8216 21.8646 20.5235 21.8907 20.1596C21.9169 19.7956 21.955 19.3539 22.0074 18.8344V18.7955Z" fill="#1F2548"/>
<path fill-rule="evenodd" clip-rule="evenodd" d="M32.6651 27.8758C31.9828 29.3317 31.1436 30.0585 30.1475 30.0585C29.8064 30.0585 29.4336 29.9678 29.0271 29.7853C28.6195 29.6038 28.2337 29.214 27.8664 28.6156C27.631 28.175 27.4468 27.6879 27.316 27.1544C27.1842 26.623 27.1199 26.0182 27.1199 25.3432C27.1199 24.7708 27.2376 23.2124 27.473 20.6658C27.6038 19.4194 27.6953 18.4118 27.7487 17.645C27.801 16.8793 27.8272 16.3663 27.8272 16.106V15.5217C27.8272 15.3921 27.8664 15.3014 27.946 15.2485C28.0245 15.1966 28.1618 15.1837 28.359 15.2096C28.5552 15.2355 28.8495 15.2874 29.2429 15.3662C29.9764 15.4958 30.4428 15.6643 30.6401 15.8727C30.8352 16.0801 30.9344 16.2615 30.9344 16.4181C30.9344 16.4959 30.9147 16.6125 30.8755 16.7691C30.8352 16.9246 30.7905 17.0942 30.7371 17.2756C30.6848 17.4571 30.6401 17.6266 30.5998 17.7822C30.5605 17.9377 30.5409 18.0424 30.5409 18.0932C30.4886 18.3016 30.4156 18.6786 30.3251 19.224C30.2325 19.7694 30.1213 20.3418 29.9906 20.939C29.8325 21.7706 29.7214 22.5309 29.656 23.2189C29.5906 23.9079 29.5579 24.6412 29.5579 25.421C29.5579 25.5506 29.5644 25.732 29.5775 25.9664C29.5906 26.1997 29.6167 26.4405 29.656 26.6868C29.6952 26.9341 29.7606 27.149 29.8521 27.3304C29.9448 27.5119 30.069 27.6166 30.226 27.6426C30.2783 27.6166 30.384 27.4935 30.5409 27.271C30.6979 27.0518 30.9071 26.6025 31.1709 25.9275C31.2221 25.7709 31.4063 25.3432 31.7212 24.6412C32.0351 23.9392 32.3893 22.9651 32.7828 21.7188C32.9135 21.303 33.0836 20.7964 33.2939 20.1981C33.5032 19.6009 33.7266 18.8859 33.962 18.0543C33.9881 17.9517 34.0274 17.8146 34.0808 17.645C34.1331 17.4765 34.1985 17.3145 34.2769 17.1579C34.3554 17.0024 34.46 16.8728 34.5919 16.7691C34.7227 16.6654 34.8927 16.6125 35.1031 16.6125C35.1815 16.6125 35.2796 16.6708 35.3973 16.7886C35.5161 16.9052 35.575 17.2368 35.575 17.7822C35.575 17.9128 35.5619 18.0878 35.5357 18.3081C35.5096 18.5284 35.4431 18.8676 35.3396 19.3212C35.2338 19.7758 35.0834 20.3536 34.8862 21.0556C34.69 21.7576 34.4208 22.653 34.0808 23.7448C33.7135 24.9145 33.4181 25.8292 33.1958 26.4924C32.9724 27.1544 32.7958 27.6166 32.6651 27.8758M30.226 13.6512C29.5437 13.6512 29.0075 13.392 28.6141 12.8714C28.1945 12.3778 27.9841 11.8713 27.9841 11.3518C27.9841 10.9101 28.1945 10.4814 28.6141 10.0656C29.086 9.64977 29.5056 9.44133 29.8728 9.44133C30.5017 9.44133 30.9867 9.62385 31.3278 9.98781C31.6678 10.3518 31.8389 10.8712 31.8389 11.5462C31.8389 12.0139 31.7801 12.3908 31.6613 12.677C31.5436 12.9621 31.3921 13.177 31.2101 13.3196C31.0259 13.4632 30.8428 13.5529 30.6586 13.5918C30.4755 13.6317 30.3306 13.6512 30.226 13.6512" fill="#1F2548"/>
<path fill-rule="evenodd" clip-rule="evenodd" d="M38.4457 13.8067C38.8129 13.8067 39.1857 13.865 39.5671 13.9816C39.9464 14.0994 40.2875 14.3132 40.5894 14.6253C40.8902 14.9374 41.1398 15.3727 41.337 15.931C41.5332 16.4894 41.6313 17.2108 41.6313 18.0932C41.6313 19.4713 41.5398 20.8159 41.3556 22.127C41.1725 23.4392 40.8967 24.719 40.5305 25.9664C39.6914 28.9018 38.6157 30.3696 37.3057 30.3696C36.5188 30.3696 35.8365 29.8242 35.26 28.7334C35.0246 28.9666 34.7619 29.0844 34.4731 29.0844C34.0808 29.0844 33.7135 28.85 33.3724 28.3824C33.0836 27.9406 32.9397 27.5248 32.9397 27.135C32.9397 26.9535 32.9789 26.784 33.0574 26.6284C32.9789 22.4715 33.2547 17.7822 33.8835 12.5593C34.0928 10.8972 34.2966 9.32469 34.4927 7.84401C34.69 6.36225 34.8796 4.90857 35.0638 3.47865C35.1161 2.88141 35.1423 2.47857 35.1423 2.27013V1.92021L35.0638 1.68585L35.1815 1.49145C35.26 1.33593 35.4039 1.18689 35.6142 1.04325C35.8235 0.900687 36.1253 0.828327 36.5188 0.828327H36.7945C37.2653 0.828327 37.6402 0.965487 37.9149 1.23765C38.1895 1.51089 38.3279 1.90725 38.3279 2.42673C38.3279 2.53041 38.3083 2.69349 38.2691 2.91381C38.2299 3.13521 38.1438 3.50457 38.013 4.02405C37.8822 4.51869 37.7776 4.96041 37.698 5.34921C37.6195 5.74017 37.5541 6.10413 37.5018 6.44109C37.1346 8.33757 36.8327 10.0591 36.5973 11.6046C36.3618 13.1511 36.1646 14.5346 36.0076 15.755C36.1646 15.4699 36.3477 15.1707 36.558 14.8586C37.0561 14.1577 37.6849 13.8067 38.4457 13.8067M38.2887 25.6543C38.8914 23.4975 39.1933 21.2371 39.1933 18.873C39.1933 17.7562 39.1344 17.0089 39.0156 16.632C38.8979 16.2561 38.8129 16.0412 38.7606 15.9894C38.7072 16.0153 38.6429 16.0801 38.5644 16.1838C38.4849 16.2885 38.3737 16.47 38.2299 16.7292C38.0849 16.9894 37.9214 17.3404 37.7383 17.7822C37.5541 18.2239 37.3449 18.7952 37.1084 19.4972C36.6627 20.7705 36.3281 21.9585 36.1057 23.0623C35.8823 24.1671 35.7581 25.1866 35.7319 26.1219C35.9946 26.434 36.3084 26.8758 36.6757 27.4471C36.7804 27.6285 36.873 27.7333 36.9515 27.7592C37.0299 27.7851 37.0822 27.7981 37.1084 27.7981C37.213 27.7981 37.37 27.649 37.5803 27.3499C37.7906 27.0518 38.0261 26.4859 38.2887 25.6543" fill="#1F2548"/>
<path d="M10.8073 37.3105L11.0256 37.4322L11.0256 37.4322L10.8073 37.3105ZM10.7106 36.9704L10.8323 36.7521L10.8323 36.7521L10.7106 36.9704ZM7.57584 43.108L7.35747 42.9862L7.35747 42.9862L7.57584 43.108ZM7.23575 43.2046L7.35747 42.9862L7.35747 42.9862L7.23575 43.2046ZM7.1391 42.8645L6.92073 42.7428L6.92073 42.7428L7.1391 42.8645ZM10.3705 37.0671L10.5889 37.1888L10.5889 37.1888L10.3705 37.0671ZM10.8073 37.0671L11.0257 36.9454L11.0257 36.9454L10.8073 37.0671ZM10.4672 36.9704L10.3455 36.752L10.3455 36.752L10.4672 36.9704ZM14.0376 42.8646L14.256 42.7429L14.256 42.7429L14.0376 42.8646ZM13.9409 43.2046L13.8192 42.9862L13.8192 42.9862L13.9409 43.2046ZM13.6008 43.1079L13.8192 42.9862L13.8192 42.9862L13.6008 43.1079ZM10.3705 37.3105L10.1521 37.4322L10.1521 37.4322L10.3705 37.3105ZM17.269 37.0671L17.0507 37.1888L17.0507 37.1888L17.269 37.0671ZM16.929 36.9704L16.8073 36.752L16.8073 36.752L16.929 36.9704ZM20.4994 42.8646L20.281 42.9862L20.281 42.9862L20.4994 42.8646ZM20.4027 43.2046L20.5243 43.423L20.5243 43.423L20.4027 43.2046ZM20.0626 43.1079L19.8442 43.2296L19.8442 43.2296L20.0626 43.1079ZM16.8323 37.3105L16.6139 37.4322L16.6139 37.4322L16.8323 37.3105ZM17.269 37.3105L17.4874 37.4322L17.4874 37.4322L17.269 37.3105ZM17.1724 36.9704L17.2941 36.7521L17.2941 36.7521L17.1724 36.9704ZM14.0376 43.108L13.8192 42.9862L13.8192 42.9862L14.0376 43.108ZM13.6975 43.2046L13.8192 42.9862L13.8192 42.9862L13.6975 43.2046ZM13.6009 42.8645L13.3825 42.7428L13.3825 42.7428L13.6009 42.8645ZM16.8323 37.0671L17.0507 37.1888L17.0507 37.1888L16.8323 37.0671ZM23.7308 37.3105L23.9491 37.4322L23.9491 37.4322L23.7308 37.3105ZM20.4993 43.108L20.281 42.9862L20.281 42.9862L20.4993 43.108ZM20.1593 43.2046L20.0375 43.423L20.1593 43.2046ZM20.0626 42.8645L19.8442 42.7428L19.8442 42.7428L20.0626 42.8645ZM23.294 37.0671L23.5124 37.1888L23.5124 37.1888L23.294 37.0671ZM23.7308 37.0671L23.9491 36.9454L23.7308 37.0671ZM23.3907 36.9704L23.269 36.7521L23.269 36.7521L23.3907 36.9704ZM26.9622 42.8645L27.1806 42.7428L27.1806 42.7428L26.9622 42.8645ZM26.8655 43.2046L26.7438 42.9862L26.7438 42.9862L26.8655 43.2046ZM26.5255 43.108L26.7438 42.9862L26.7438 42.9862L26.5255 43.108ZM23.294 37.3105L23.0757 37.4322L23.0757 37.4322L23.294 37.3105ZM30.1936 37.0671L30.412 36.9454L30.412 36.9454L30.1936 37.0671ZM29.8535 36.9704L29.7319 36.752L29.7319 36.752L29.8535 36.9704ZM33.424 42.8646L33.6423 42.7429L33.6423 42.7429L33.424 42.8646ZM33.3273 43.2046L33.2056 42.9862L33.2056 42.9862L33.3273 43.2046ZM32.9872 43.1079L33.2056 42.9862L33.2056 42.9862L32.9872 43.1079ZM29.7568 37.3105L29.5385 37.4322L29.5385 37.4322L29.7568 37.3105ZM30.1936 37.3105L30.412 37.4322L30.412 37.4322L30.1936 37.3105ZM26.9622 43.108L26.7438 42.9862L26.7438 42.9862L26.9622 43.108ZM26.6221 43.2046L26.5004 43.423L26.6221 43.2046ZM26.5255 42.8645L26.3071 42.7428L26.3071 42.7428L26.5255 42.8645ZM29.7569 37.0671L29.9752 37.1888L29.9752 37.1888L29.7569 37.0671ZM36.6554 37.3105L36.8737 37.4322L36.8737 37.4322L36.6554 37.3105ZM33.4239 43.108L33.2056 42.9862L33.2056 42.9862L33.4239 43.108ZM33.0838 43.2046L32.9621 43.423L33.0838 43.2046ZM32.9872 42.8645L32.7688 42.7428L32.7688 42.7428L32.9872 42.8645ZM36.2186 37.0671L36.437 37.1888L36.437 37.1888L36.2186 37.0671ZM36.6554 37.0671L36.437 37.1888L36.437 37.1888L36.6554 37.0671ZM36.3153 36.9704L36.1936 36.752L36.3153 36.9704ZM39.8857 42.8646L39.6673 42.9862L39.6673 42.9862L39.8857 42.8646ZM39.789 43.2046L39.9107 43.423L39.9107 43.423L39.789 43.2046ZM39.4489 43.1079L39.6673 42.9862L39.6673 42.9862L39.4489 43.1079ZM36.2186 37.3105L36.0002 37.4322L36.0002 37.4322L36.2186 37.3105ZM43.1182 37.0671L42.8998 37.1888L42.8998 37.1888L43.1182 37.0671ZM42.7781 36.9704L42.8998 37.1888L42.8998 37.1888L42.7781 36.9704ZM46.3496 42.8645L46.1313 42.9862L46.1313 42.9862L46.3496 42.8645ZM46.253 43.2046L46.1313 42.9862L46.1313 42.9862L46.253 43.2046ZM45.9129 43.108L46.1313 42.9862L46.1313 42.9862L45.9129 43.108ZM42.6814 37.3105L42.8998 37.1888L42.8998 37.1888L42.6814 37.3105ZM43.1182 37.3105L42.8998 37.1888L42.8998 37.1888L43.1182 37.3105ZM39.8857 43.108L40.104 43.2297L40.104 43.2297L39.8857 43.108ZM39.5456 43.2046L39.6673 42.9862L39.5456 43.2046ZM39.449 42.8645L39.2306 42.7427L39.2306 42.7427L39.449 42.8645ZM42.6815 37.067L42.8998 37.1888L42.8998 37.1888L42.6815 37.067ZM49.5789 37.3104L49.3605 37.1888L49.3605 37.1888L49.5789 37.3104ZM46.3497 43.1079L46.5681 43.2295L46.5681 43.2295L46.3497 43.1079ZM46.0096 43.2046L45.8879 43.423L46.0096 43.2046ZM45.9129 42.8646L45.6944 42.7429L45.6944 42.7429L45.9129 42.8646ZM49.1421 37.0671L49.3605 37.1888L49.3605 37.1888L49.1421 37.0671ZM49.5788 37.067L49.7972 36.9453L49.5788 37.067ZM49.2387 36.9704L49.3605 37.1888L49.3605 37.1888L49.2387 36.9704ZM52.8114 42.8645L52.593 42.9862L52.593 42.9862L52.8114 42.8645ZM52.3746 43.108L52.1563 43.2297L52.1563 43.2297L52.3746 43.108ZM49.1421 37.3105L49.3605 37.1888L49.3605 37.1888L49.1421 37.3105ZM56.0406 37.067L56.2589 36.9453L56.2589 36.9453L56.0406 37.067ZM55.7005 36.9704L55.8222 37.1888L55.7005 36.9704ZM59.2731 42.8645L59.0548 42.9862L59.0548 42.9862L59.2731 42.8645ZM59.1765 43.2046L59.0548 42.9862L59.0548 42.9862L59.1765 43.2046ZM58.8364 43.108L59.0548 42.9862L59.0548 42.9862L58.8364 43.108ZM55.6039 37.3105L55.8222 37.1888L55.8222 37.1888L55.6039 37.3105ZM56.0406 37.3104L55.8222 37.1888L55.8222 37.1888L56.0406 37.3104ZM52.8114 43.1079L53.0298 43.2295L53.0298 43.2295L52.8114 43.1079ZM52.4713 43.2046L52.3497 43.423L52.4713 43.2046ZM52.3746 42.8646L52.1562 42.7429L52.1562 42.7429L52.3746 42.8646ZM55.6038 37.0671L55.8222 37.1888L55.8222 37.1888L55.6038 37.0671ZM11.0256 37.4322C11.1601 37.191 11.0735 36.8865 10.8323 36.7521L10.5889 37.1888L10.5889 37.1888L11.0256 37.4322ZM7.79421 43.2297L11.0256 37.4322L10.5889 37.1888L7.35747 42.9862L7.79421 43.2297ZM7.11403 43.423C7.35524 43.5574 7.65976 43.4709 7.79421 43.2297L7.35747 42.9862L7.35747 42.9862L7.11403 43.423ZM6.92073 42.7428C6.78628 42.984 6.87283 43.2885 7.11403 43.423L7.35747 42.9862L7.35747 42.9862L6.92073 42.7428ZM10.1522 36.9454L6.92073 42.7428L7.35747 42.9862L10.5889 37.1888L10.1522 36.9454ZM10.8323 36.7521C10.5911 36.6176 10.2866 36.7042 10.1522 36.9454L10.5889 37.1888L10.5889 37.1888L10.8323 36.7521ZM11.0257 36.9454C10.8913 36.7042 10.5868 36.6176 10.3455 36.752L10.5889 37.1888L10.5889 37.1888L11.0257 36.9454ZM14.256 42.7429L11.0257 36.9454L10.5889 37.1888L13.8192 42.9862L14.256 42.7429ZM14.0626 43.423C14.3038 43.2886 14.3904 42.9841 14.256 42.7429L13.8192 42.9862L13.8192 42.9862L14.0626 43.423ZM13.3825 43.2296C13.5169 43.4708 13.8214 43.5574 14.0626 43.423L13.8192 42.9862L13.8192 42.9862L13.3825 43.2296ZM10.1521 37.4322L13.3825 43.2296L13.8192 42.9862L10.5889 37.1888L10.1521 37.4322ZM10.3455 36.752C10.1043 36.8864 10.0177 37.1909 10.1521 37.4322L10.5889 37.1888L10.5889 37.1888L10.3455 36.752ZM17.4874 36.9454C17.353 36.7042 17.0485 36.6176 16.8073 36.752L17.0507 37.1888L17.0507 37.1888L17.4874 36.9454ZM20.7177 42.7429L17.4874 36.9454L17.0507 37.1888L20.281 42.9862L20.7177 42.7429ZM20.5243 43.423C20.7656 43.2886 20.8522 42.9841 20.7177 42.7429L20.281 42.9862L20.281 42.9862L20.5243 43.423ZM19.8442 43.2296C19.9786 43.4708 20.2831 43.5574 20.5243 43.423L20.281 42.9862L20.281 42.9862L19.8442 43.2296ZM16.6139 37.4322L19.8442 43.2296L20.281 42.9862L17.0507 37.1888L16.6139 37.4322ZM16.8073 36.752C16.5661 36.8864 16.4795 37.1909 16.6139 37.4322L17.0507 37.1888L17.0507 37.1888L16.8073 36.752ZM17.4874 37.4322C17.6218 37.191 17.5353 36.8865 17.2941 36.7521L17.0507 37.1888L17.0507 37.1888L17.4874 37.4322ZM14.256 43.2297L17.4874 37.4322L17.0507 37.1888L13.8192 42.9862L14.256 43.2297ZM13.5758 43.423C13.817 43.5574 14.1215 43.4709 14.256 43.2297L13.8192 42.9862L13.8192 42.9862L13.5758 43.423ZM13.3825 42.7428C13.248 42.984 13.3346 43.2885 13.5758 43.423L13.8192 42.9862L13.8192 42.9862L13.3825 42.7428ZM16.6139 36.9454L13.3825 42.7428L13.8192 42.9862L17.0507 37.1888L16.6139 36.9454ZM17.2941 36.7521C17.0529 36.6176 16.7484 36.7042 16.6139 36.9454L17.0507 37.1888L17.0507 37.1888L17.2941 36.7521ZM23.9491 37.4322C24.0836 37.191 23.997 36.8865 23.7558 36.7521L23.5124 37.1888L23.5124 37.1888L23.9491 37.4322ZM20.7177 43.2297L23.9491 37.4322L23.5124 37.1888L20.281 42.9862L20.7177 43.2297ZM20.0375 43.423C20.2787 43.5574 20.5833 43.4709 20.7177 43.2297L20.281 42.9862L20.281 42.9862L20.0375 43.423ZM19.8442 42.7428C19.7098 42.984 19.7963 43.2885 20.0375 43.423L20.281 42.9862L20.281 42.9862L19.8442 42.7428ZM23.0757 36.9454L19.8442 42.7428L20.281 42.9862L23.5124 37.1888L23.0757 36.9454ZM23.7558 36.7521C23.5146 36.6176 23.2101 36.7042 23.0757 36.9454L23.5124 37.1888L23.5124 37.1888L23.7558 36.7521ZM23.9491 36.9454C23.8147 36.7042 23.5102 36.6176 23.269 36.7521L23.5124 37.1888L23.5124 37.1888L23.9491 36.9454ZM27.1806 42.7428L23.9491 36.9454L23.5124 37.1888L26.7438 42.9862L27.1806 42.7428ZM26.9873 43.423C27.2285 43.2885 27.315 42.984 27.1806 42.7428L26.7438 42.9862L26.7438 42.9862L26.9873 43.423ZM26.3071 43.2297C26.4415 43.4709 26.746 43.5574 26.9873 43.423L26.7438 42.9862L26.7438 42.9862L26.3071 43.2297ZM23.0757 37.4322L26.3071 43.2297L26.7438 42.9862L23.5124 37.1888L23.0757 37.4322ZM23.269 36.7521C23.0278 36.8865 22.9412 37.191 23.0757 37.4322L23.5124 37.1888L23.5124 37.1888L23.269 36.7521ZM30.412 36.9454C30.2776 36.7042 29.9731 36.6176 29.7319 36.752L29.9752 37.1888L29.9752 37.1888L30.412 36.9454ZM33.6423 42.7429L30.412 36.9454L29.9752 37.1888L33.2056 42.9862L33.6423 42.7429ZM33.4489 43.423C33.6902 43.2886 33.7767 42.9841 33.6423 42.7429L33.2056 42.9862L33.2056 42.9862L33.4489 43.423ZM32.7688 43.2296C32.9032 43.4708 33.2077 43.5574 33.4489 43.423L33.2056 42.9862L33.2056 42.9862L32.7688 43.2296ZM29.5385 37.4322L32.7688 43.2296L33.2056 42.9862L29.9752 37.1888L29.5385 37.4322ZM29.7319 36.752C29.4906 36.8864 29.4041 37.1909 29.5385 37.4322L29.9752 37.1888L29.9752 37.1888L29.7319 36.752ZM30.412 37.4322C30.5464 37.191 30.4599 36.8865 30.2187 36.7521L29.9752 37.1888L29.9752 37.1888L30.412 37.4322ZM27.1806 43.2297L30.412 37.4322L29.9752 37.1888L26.7438 42.9862L27.1806 43.2297ZM26.5004 43.423C26.7416 43.5574 27.0461 43.4709 27.1806 43.2297L26.7438 42.9862L26.7438 42.9862L26.5004 43.423ZM26.3071 42.7428C26.1726 42.984 26.2592 43.2885 26.5004 43.423L26.7438 42.9862L26.7438 42.9862L26.3071 42.7428ZM29.5385 36.9454L26.3071 42.7428L26.7438 42.9862L29.9752 37.1888L29.5385 36.9454ZM30.2187 36.7521C29.9775 36.6176 29.6729 36.7042 29.5385 36.9454L29.9752 37.1888L29.9752 37.1888L30.2187 36.7521ZM36.8737 37.4322C37.0082 37.191 36.9216 36.8865 36.6804 36.7521L36.437 37.1888L36.437 37.1888L36.8737 37.4322ZM33.6423 43.2297L36.8737 37.4322L36.437 37.1888L33.2056 42.9862L33.6423 43.2297ZM32.9621 43.423C33.2033 43.5574 33.5079 43.4709 33.6423 43.2297L33.2056 42.9862L33.2056 42.9862L32.9621 43.423ZM32.7688 42.7428C32.6344 42.984 32.7209 43.2885 32.9621 43.423L33.2056 42.9862L33.2056 42.9862L32.7688 42.7428ZM36.0002 36.9454L32.7688 42.7428L33.2056 42.9862L36.437 37.1888L36.0002 36.9454ZM36.6804 36.7521C36.4392 36.6176 36.1347 36.7042 36.0002 36.9454L36.437 37.1888L36.437 37.1888L36.6804 36.7521ZM36.8738 36.9454C36.7393 36.7042 36.4348 36.6176 36.1936 36.752L36.437 37.1888L36.437 37.1888L36.8738 36.9454ZM40.1041 42.7429L36.8738 36.9454L36.437 37.1888L39.6673 42.9862L40.1041 42.7429ZM39.9107 43.423C40.1519 43.2886 40.2385 42.9841 40.1041 42.7429L39.6673 42.9862L39.6673 42.9862L39.9107 43.423ZM39.2306 43.2296C39.365 43.4708 39.6695 43.5574 39.9107 43.423L39.6673 42.9862L39.6673 42.9862L39.2306 43.2296ZM36.0002 37.4322L39.2306 43.2296L39.6673 42.9862L36.437 37.1888L36.0002 37.4322ZM36.1936 36.752C35.9524 36.8864 35.8658 37.1909 36.0002 37.4322L36.437 37.1888L36.437 37.1888L36.1936 36.752ZM43.3365 36.9454C43.2021 36.7042 42.8976 36.6176 42.6564 36.7521L42.8998 37.1888L42.8998 37.1888L43.3365 36.9454ZM46.568 42.7428L43.3365 36.9454L42.8998 37.1888L46.1313 42.9862L46.568 42.7428ZM46.3747 43.423C46.6159 43.2885 46.7024 42.984 46.568 42.7428L46.1313 42.9862L46.1313 42.9862L46.3747 43.423ZM45.6945 43.2297C45.829 43.4709 46.1335 43.5574 46.3747 43.423L46.1313 42.9862L46.1313 42.9862L45.6945 43.2297ZM42.4631 37.4322L45.6945 43.2297L46.1313 42.9862L42.8998 37.1888L42.4631 37.4322ZM42.6564 36.7521C42.4152 36.8865 42.3286 37.191 42.4631 37.4322L42.8998 37.1888L42.8998 37.1888L42.6564 36.7521ZM43.3365 37.4323C43.471 37.1911 43.3845 36.8866 43.1433 36.7521L42.8998 37.1888L42.8998 37.1888L43.3365 37.4323ZM40.104 43.2297L43.3365 37.4323L42.8998 37.1888L39.6673 42.9862L40.104 43.2297ZM39.4238 43.4229C39.665 43.5574 39.9696 43.4709 40.104 43.2297L39.6673 42.9862L39.6673 42.9862L39.4238 43.4229ZM39.2306 42.7427C39.0961 42.9839 39.1826 43.2885 39.4238 43.4229L39.6673 42.9862L39.6673 42.9862L39.2306 42.7427ZM42.4631 36.9453L39.2306 42.7427L39.6673 42.9862L42.8998 37.1888L42.4631 36.9453ZM43.1433 36.7521C42.9021 36.6176 42.5976 36.7041 42.4631 36.9453L42.8998 37.1888L42.8998 37.1888L43.1433 36.7521ZM49.7973 37.4321C49.9317 37.1909 49.845 36.8864 49.6038 36.752L49.3605 37.1888L49.3605 37.1888L49.7973 37.4321ZM46.5681 43.2295L49.7973 37.4321L49.3605 37.1888L46.1313 42.9862L46.5681 43.2295ZM45.8879 43.423C46.1292 43.5574 46.4337 43.4708 46.5681 43.2295L46.1313 42.9862L46.1313 42.9862L45.8879 43.423ZM45.6944 42.7429C45.5601 42.9842 45.6467 43.2887 45.8879 43.423L46.1313 42.9862L46.1313 42.9862L45.6944 42.7429ZM48.9237 36.9455L45.6944 42.7429L46.1313 42.9862L49.3605 37.1888L48.9237 36.9455ZM49.6038 36.752C49.3626 36.6176 49.0581 36.7042 48.9237 36.9455L49.3605 37.1888L49.3605 37.1888L49.6038 36.752ZM49.7972 36.9453C49.6627 36.7041 49.3582 36.6176 49.117 36.7521L49.3605 37.1888L49.3605 37.1888L49.7972 36.9453ZM53.0297 42.7427L49.7972 36.9453L49.3605 37.1888L52.593 42.9862L53.0297 42.7427ZM52.8365 43.4229C53.0777 43.2885 53.1642 42.9839 53.0297 42.7427L52.593 42.9862L52.593 42.9862L52.8365 43.4229ZM52.1563 43.2297C52.2908 43.4709 52.5953 43.5574 52.8365 43.4229L52.593 42.9862L52.593 42.9862L52.1563 43.2297ZM48.9238 37.4323L52.1563 43.2297L52.593 42.9862L49.3605 37.1888L48.9238 37.4323ZM49.117 36.7521C48.8758 36.8866 48.7893 37.1911 48.9238 37.4323L49.3605 37.1888L49.3605 37.1888L49.117 36.7521ZM56.2589 36.9453C56.1245 36.7041 55.8199 36.6176 55.5787 36.7521L55.8222 37.1888L55.8222 37.1888L56.2589 36.9453ZM59.4915 42.7427L56.2589 36.9453L55.8222 37.1888L59.0548 42.9862L59.4915 42.7427ZM59.2983 43.4229C59.5394 43.2885 59.6259 42.9839 59.4915 42.7427L59.0548 42.9862L59.0548 42.9862L59.2983 43.4229ZM58.6181 43.2297C58.7525 43.4709 59.0571 43.5574 59.2983 43.4229L59.0548 42.9862L59.0548 42.9862L58.6181 43.2297ZM55.3855 37.4323L58.6181 43.2297L59.0548 42.9862L55.8222 37.1888L55.3855 37.4323ZM55.5787 36.7521C55.3376 36.8866 55.2511 37.1911 55.3855 37.4323L55.8222 37.1888L55.8222 37.1888L55.5787 36.7521ZM56.259 37.4321C56.3934 37.1909 56.3068 36.8864 56.0655 36.752L55.8222 37.1888L55.8222 37.1888L56.259 37.4321ZM53.0298 43.2295L56.259 37.4321L55.8222 37.1888L52.593 42.9862L53.0298 43.2295ZM52.3497 43.423C52.5909 43.5574 52.8954 43.4708 53.0298 43.2295L52.593 42.9862L52.593 42.9862L52.3497 43.423ZM52.1562 42.7429C52.0218 42.9842 52.1085 43.2887 52.3497 43.423L52.593 42.9862L52.593 42.9862L52.1562 42.7429ZM55.3854 36.9455L52.1562 42.7429L52.593 42.9862L55.8222 37.1888L55.3854 36.9455ZM56.0655 36.752C55.8243 36.6176 55.5198 36.7042 55.3854 36.9455L55.8222 37.1888L55.8222 37.1888L56.0655 36.752Z" fill="#1F2548"/>
</svg>
