<svg xmlns="http://www.w3.org/2000/svg" width="75" height="63" fill="none" viewBox="0 0 75 63"><path fill="#1F2548" fill-rule="evenodd" d="M41.1097 58.8639C40.9441 58.8639 40.7612 58.8514 40.5284 58.8373C40.1191 58.8108 39.5612 58.7749 38.6987 58.7749C37.0253 58.7749 36.3503 58.291 35.8503 57.8383C35.8019 57.7946 35.7597 57.7571 35.7284 57.7322L34.9503 57.1265C33.1972 55.7591 31.3831 54.3449 29.6144 52.9337C29.1581 52.57 28.5503 51.9706 28.5269 50.9763C28.5269 50.9747 28.5269 50.9716 28.5269 50.97C28.505 49.1109 28.6659 47.1737 29.0206 45.0477C29.1769 44.0721 29.7066 43.5148 30.6862 43.2916C31.2831 43.1589 31.8503 43.1402 32.3753 43.1402C32.5097 43.1402 32.6441 43.1417 32.7769 43.1433C32.9066 43.1433 33.0362 43.1449 33.1659 43.1449C33.4206 43.1449 33.6175 43.1402 33.8003 43.1292C34.0987 43.1105 34.3644 43.0933 34.6003 43.0793C35.7409 43.0075 36.2144 42.9778 36.5862 42.9778C36.8691 42.9778 37.0784 42.995 37.4237 43.0231C37.8003 43.0528 38.3691 43.098 39.4191 43.1511C41.8753 43.2713 44.33 43.5741 46.705 43.8676C47.3519 43.9456 47.9191 44.0424 48.3112 44.4295C48.7159 44.8307 48.7941 45.4145 48.8441 46.028C48.9222 47.0005 48.8909 47.7107 48.8597 48.3975C48.83 49.0578 48.8003 49.6822 48.8675 50.5314C48.9644 51.7302 47.8831 52.8682 47.2378 53.5488L47.1612 53.6284C46.8003 54.0108 46.4316 54.4213 46.0409 54.8569C44.9597 56.0619 43.7347 57.4293 42.4222 58.3847C41.98 58.7093 41.6706 58.8639 41.1097 58.8639ZM29.7253 50.9513C29.7362 51.3415 29.9206 51.6444 30.3628 51.9987C32.1269 53.4051 33.9362 54.8163 35.6878 56.1821L36.4644 56.7878C36.5316 56.8393 36.5941 56.8955 36.655 56.9501C36.9472 57.2139 37.3472 57.5761 38.6987 57.5761C39.6003 57.5761 40.1816 57.6135 40.605 57.6416C40.8159 57.6557 40.9831 57.6666 41.1097 57.6666C41.3206 57.6666 41.3909 57.6557 41.7144 57.4184C42.9253 56.5365 44.055 55.2768 45.1487 54.0576C45.5441 53.6159 45.9191 53.1991 46.2909 52.8057L46.3691 52.7246C46.8097 52.2594 47.7269 51.2931 47.6722 50.6266C47.6003 49.7025 47.6316 49.011 47.6612 48.3429C47.6925 47.6639 47.7222 47.0208 47.6487 46.1232C47.6331 45.9265 47.5909 45.402 47.4675 45.2803C47.3362 45.1507 46.7925 45.0851 46.5597 45.0571C44.205 44.7651 41.7722 44.4639 39.3597 44.3468C38.2909 44.2937 37.7128 44.2469 37.3284 44.2157C37.0003 44.1891 36.8206 44.1751 36.5862 44.1751C36.2519 44.1751 35.7894 44.2048 34.6737 44.2734C34.4378 44.2891 34.1737 44.3047 33.8753 44.3234C33.6691 44.3359 33.4441 44.3421 33.1659 44.3421C33.0331 44.3421 32.8987 44.3421 32.7659 44.3406C32.6362 44.339 32.505 44.3374 32.3753 44.3374C31.9191 44.3374 31.43 44.3515 30.9503 44.4592C30.3956 44.5856 30.2753 44.7917 30.205 45.2381C30.205 45.2397 30.2034 45.2412 30.2034 45.2412C29.8612 47.2971 29.705 49.164 29.7253 50.9513Z" clip-rule="evenodd"/><mask id="mask0_12_192" width="75" height="63" x="0" y="0" maskUnits="userSpaceOnUse" style="mask-type:alpha"><path fill="#fff" fill-rule="evenodd" d="M0 0.561131H74.9998V62.2737H0V0.561131Z" clip-rule="evenodd"/></mask><g mask="url(#mask0_12_192)"><path fill="#1F2548" fill-rule="evenodd" d="M74.93 41.8187C74.9081 41.5548 74.88 41.2255 74.8472 40.8181C74.8472 40.8149 74.8472 40.8103 74.8456 40.8071C74.8456 40.8025 74.8456 40.7993 74.8456 40.7947C74.0847 34.2495 73.1097 28.2507 71.9456 22.9636C70.7894 17.7141 69.8472 14.9808 69.4957 14.0489C69.4941 14.0442 69.4925 14.0395 69.4894 14.0348C69.4894 14.0317 69.4878 14.0286 69.4878 14.027C69.491 14.0192 69.505 13.988 69.5628 13.9381C70.0956 13.4838 70.5706 12.9734 71.03 12.4801C71.2769 12.2148 71.5331 11.94 71.7894 11.684C71.791 11.6825 71.791 11.6825 71.7925 11.6809C72.8175 10.6397 73.3425 9.29573 73.3519 7.6848V7.68168C73.3519 6.65612 73.2925 5.5806 72.5691 4.68148C71.9253 3.88695 71.016 3.27348 69.7847 2.80831C68.6285 2.35719 67.5691 2.53358 66.5472 3.34373C66.5456 3.34529 66.5441 3.34685 66.5441 3.34685C66.1581 3.65904 65.8378 4.01495 65.5285 4.36148C65.3269 4.58626 65.1316 4.8048 64.9238 5.0046C64.6722 4.89221 64.4363 4.82978 64.2191 4.77358C64.1769 4.76109 64.1332 4.75017 64.091 4.73924C63.3582 4.53943 61.4863 4.06334 59.9613 3.9447C59.58 3.91192 59.205 3.8807 58.8347 3.84792C56.166 3.6169 53.6425 3.39992 50.8503 3.49514C48.5582 3.41553 41.6441 3.35153 36.0847 3.30002C32.8878 3.27036 30.1285 3.24382 28.8472 3.22197C26.6535 3.18607 24.4206 3.12207 22.2628 3.05807C21.0613 3.02217 19.8207 2.98626 18.6003 2.9566C18.2597 2.94568 17.9175 2.93631 17.5769 2.92538C15.991 2.87699 14.3519 2.82704 12.741 2.85358C11.5753 2.87231 11.005 2.4368 10.3003 1.57202C9.3769 0.430946 8.29409 0.473092 7.35502 0.665092C6.32534 0.875824 5.42846 1.32695 4.61284 2.04656C3.8769 2.6928 3.29096 3.47641 2.75502 4.22256C2.2019 4.98587 1.97377 5.74919 2.05502 6.55309C2.12065 7.2009 2.39252 7.8768 2.90971 8.67914C2.91127 8.6807 2.91127 8.68226 2.91284 8.68382C3.52377 9.61573 4.34096 10.3447 5.13159 11.0487C5.42377 11.3078 5.70346 11.5576 5.96909 11.8136C5.87221 12.1898 5.77065 12.5675 5.67221 12.9375C5.37846 14.0364 5.07377 15.1712 4.84096 16.3123C4.68628 17.0866 4.51127 17.8717 4.34096 18.6319C4.12846 19.5841 3.90971 20.5675 3.72534 21.5494C3.38315 22.692 2.13315 29.2731 0.9519 35.581C0.784712 36.4692 0.6644 37.1108 0.6144 37.3668C0.315962 38.9121 0.00814968 40.7447 0.000337185 42.6366C-0.0184128 44.7533 0.744087 46.1597 2.47065 47.1962C5.6894 49.1256 10.3832 51.4561 12.9378 52.3911C15.1753 53.2028 18.0707 54.1707 20.8785 55.0479C23.7675 55.9486 26.1175 56.6105 27.3269 56.8633C27.3675 56.8727 27.4097 56.8758 27.4503 56.8758C27.5253 56.8758 27.5988 56.8618 27.6675 56.8352C27.8456 57.0866 28.03 57.3316 28.2191 57.5673C28.2222 57.572 28.2269 57.5767 28.23 57.5814C28.4253 57.803 30.1456 59.7527 31.1613 60.4302C31.4003 60.6471 31.7613 60.8235 32.1113 60.9952C32.2175 61.0468 32.3175 61.0951 32.4081 61.142C33.8503 61.9053 35.1456 62.2659 36.4472 62.2659C36.5831 62.2659 36.7206 62.2628 36.8566 62.2549C36.8582 62.2549 36.8597 62.2549 36.8597 62.2549C36.8613 62.2534 36.8628 62.2549 36.8644 62.2534C37.1816 62.23 38.0222 62.244 38.8347 62.2565C39.3832 62.2659 39.9144 62.2737 40.3582 62.2737C40.7706 62.2737 41.1066 62.2659 41.3066 62.2456C41.5722 62.2159 41.8972 62.2237 42.1847 62.2315C42.1863 62.2315 42.1878 62.2315 42.1894 62.2315C43.8175 62.2565 45.3832 62.1363 46.9753 61.8663C47.8394 61.7211 48.5316 61.3293 49.0925 60.669C50.2988 59.2485 51.2144 57.8764 52.2503 55.9361L52.5144 55.4788C52.5519 55.485 52.591 55.4897 52.63 55.4897C52.7019 55.4897 52.7753 55.4772 52.8472 55.4491L55.9207 54.2503C55.93 54.2471 55.9394 54.2425 55.9503 54.2378C57.1535 53.693 58.2847 53.2341 59.5956 52.7018C60.9144 52.1664 62.4113 51.5591 64.2769 50.7396C67.0253 49.5346 69.6519 48.0532 72.191 46.6187L72.68 46.3424C73.391 45.9412 74.6175 45.1123 74.8363 44.0914L74.8378 44.0868C75.0394 43.108 75.0316 43.0112 74.93 41.8187ZM52.1285 54.5047L51.5378 55.5318C51.5347 55.5365 51.5331 55.5396 51.53 55.5443C50.5222 57.4331 49.6347 58.7646 48.4675 60.1398C48.0316 60.6518 47.5144 60.9437 46.8378 61.0577C45.2957 61.3199 43.78 61.4354 42.2035 61.412C41.891 61.4042 41.5378 61.3964 41.2175 61.4308C40.855 61.4698 39.7894 61.4526 38.8488 61.437C37.9847 61.4229 37.1691 61.4105 36.8097 61.437C35.5238 61.5104 34.2472 61.1872 32.7894 60.4161C32.6863 60.3646 32.5785 60.31 32.4722 60.2585C32.1785 60.1148 31.8456 59.9525 31.7019 59.812C31.6831 59.7948 31.6613 59.7777 31.6394 59.7636C30.8956 59.2797 29.541 57.8327 28.8535 57.0475C27.2941 55.1057 26.1035 52.477 25.341 50.6647C24.83 49.4721 24.6988 48.1281 24.9581 46.7779C25.2956 45.0811 25.7878 43.3796 26.2628 41.7344C26.4691 41.0226 26.6816 40.2842 26.88 39.5552C27.0456 38.9511 27.2097 38.347 27.3738 37.7445C27.8581 35.9666 28.3581 34.1277 28.8628 32.3201C28.9691 31.9424 29.0706 31.5584 29.1706 31.1853C29.7566 28.9781 30.3097 26.8926 31.7628 25.1256C32.5019 24.2343 33.1785 23.8378 34.03 23.8019C34.566 23.7769 35.1097 23.7457 35.6363 23.716C38.0785 23.5771 40.6066 23.4335 43.0738 23.8581C43.2941 23.8955 43.5144 23.9283 43.7269 23.9595C44.6191 24.0907 45.4613 24.2124 46.2238 24.726C46.8582 25.1537 47.2581 25.8187 47.6832 26.5211C47.7581 26.646 47.8363 26.7755 47.9144 26.902C48.0581 27.1689 48.5175 28.6628 49.041 30.7217C49.3222 31.8331 49.6019 32.9679 49.8722 34.0653C50.3628 36.0524 50.8691 38.1067 51.4097 40.1172C51.641 40.982 51.905 41.8499 52.1597 42.6897C52.7722 44.7127 53.4066 46.806 53.6238 48.9726C53.791 50.6413 52.9628 52.9234 52.1285 54.5047ZM73.6644 43.8417C73.5785 44.235 72.9597 44.8079 72.0894 45.3012L71.6019 45.5759C69.0878 46.9948 66.4878 48.4622 63.7941 49.6438C61.9441 50.4555 60.4566 51.0596 59.1441 51.5919C57.8269 52.1273 56.6894 52.5878 55.4691 53.1404L53.2925 53.9896C53.5878 53.3324 53.8441 52.6549 54.0363 52.0134C54.3925 50.8177 54.5285 49.7671 54.441 48.8899C54.2144 46.6436 53.5691 44.5129 52.9441 42.4524C52.691 41.6188 52.43 40.7588 52.2019 39.9049C51.6628 37.9022 51.1581 35.851 50.6691 33.8686C50.3988 32.7697 50.1191 31.6348 49.8363 30.5203C49.6331 29.7211 49.3128 28.5238 49.0363 27.6263C49.0363 27.6263 49.055 27.4452 49.2878 27.0721C49.5206 26.699 49.9003 26.2557 49.9003 26.2557C49.9003 26.2557 50.1644 26.8208 50.6503 27.1439C51.1363 27.4655 51.6519 27.6138 52.3628 27.4795C53.0722 27.3437 53.4081 26.8208 53.505 26.3104C53.6035 25.7999 53.466 24.6573 53.0941 24.3669C52.0222 23.4116 51.1113 23.6739 50.6097 23.9611C50.1082 24.2467 49.7597 24.9351 49.7113 25.3472C49.6644 25.7609 49.6597 25.7812 49.4425 26.0622C49.2253 26.3447 48.7863 26.8676 48.7863 26.8676C48.7253 26.7037 48.6722 26.5773 48.6285 26.4977C48.6269 26.4946 48.6253 26.493 48.6238 26.4899C48.6222 26.4868 48.6207 26.4836 48.6191 26.4805C48.541 26.3556 48.4613 26.2245 48.3863 26.0981C47.9331 25.3488 47.466 24.5746 46.6816 24.0469C45.7644 23.4288 44.7894 23.2868 43.8472 23.1494C43.6378 23.1182 43.4222 23.0869 43.2128 23.051C40.6535 22.6108 38.0785 22.756 35.5894 22.8981C35.066 22.9277 34.5238 22.9574 33.9925 22.9824C32.9019 23.0308 32.0206 23.5303 31.13 24.6042C30.8394 24.957 30.5816 25.3238 30.3519 25.7C30.3519 25.7 30.255 25.597 29.9066 25.4144C29.5566 25.2317 29.2597 25.1162 29.2363 24.8228C29.2128 24.5277 29.2003 24.2311 28.9035 23.9377C28.6066 23.6427 28.1378 23.3742 27.5457 23.3024C26.9535 23.229 26.4613 23.3804 26.2035 23.5131C25.9441 23.6473 25.6378 23.9268 25.491 24.2499C25.3456 24.573 25.1347 25.316 25.4613 26.1324C25.4613 26.1324 25.7081 26.8192 26.7144 26.9738C27.7191 27.1299 28.5644 26.6444 28.7503 26.4446C28.9363 26.2464 29.1957 25.9669 29.205 25.5049C29.205 25.5049 29.5363 25.5455 30.1363 26.0637H30.1394C29.2691 27.6169 28.8175 29.3184 28.3769 30.9761C28.2785 31.3461 28.1769 31.7269 28.0738 32.1C27.5675 33.9108 27.0675 35.7496 26.5832 37.5291C26.4191 38.1332 26.2535 38.7357 26.0894 39.3398C25.8925 40.0641 25.68 40.7978 25.4753 41.508C24.9941 43.1689 24.4972 44.8875 24.1535 46.6218C23.8613 48.1344 24.0113 49.6438 24.5863 50.9847C25.1222 52.26 25.8691 53.9349 26.8113 55.5147C23.9081 54.795 17.6863 52.8391 13.3488 51.2672C11.1738 50.4696 6.63159 48.2951 3.08784 46.1707C1.73159 45.3558 1.18471 44.3349 1.19877 42.6444C1.20659 40.8493 1.50346 39.0838 1.79252 37.5947C1.84252 37.334 1.96284 36.6908 2.13002 35.8011C2.84877 31.9642 4.53159 22.9777 4.88002 21.8725C4.88002 21.8694 4.88002 21.8678 4.88159 21.8647C4.88471 21.8538 4.88784 21.8413 4.89096 21.8288C4.89252 21.8226 4.89409 21.8148 4.89565 21.8069C4.89565 21.8054 4.89721 21.8038 4.89721 21.8023C5.07846 20.8313 5.29877 19.8464 5.51127 18.8926C5.68159 18.1262 5.85815 17.3348 6.01596 16.5496C6.24096 15.446 6.54096 14.3283 6.83002 13.2466C6.95815 12.7658 7.09096 12.2678 7.21752 11.7761C7.21752 11.773 7.21752 11.7683 7.21909 11.7636C7.22221 11.7527 7.22377 11.7418 7.22534 11.7308C7.2269 11.7215 7.22846 11.7121 7.23002 11.7043C7.23159 11.6934 7.23159 11.684 7.23315 11.6747C7.23315 11.6637 7.23471 11.6544 7.23471 11.6434C7.23471 11.6356 7.23471 11.6263 7.23471 11.6185C7.23471 11.6075 7.23471 11.595 7.23315 11.5841C7.23315 11.5763 7.23159 11.5685 7.23159 11.5607C7.23002 11.5498 7.22846 11.5388 7.2269 11.5279C7.22534 11.5186 7.22221 11.5108 7.22065 11.5014C7.21909 11.492 7.21752 11.4827 7.2144 11.4733C7.21127 11.4624 7.20815 11.453 7.20502 11.4436C7.2019 11.4358 7.20034 11.4265 7.19721 11.4187C7.19252 11.4077 7.18784 11.3984 7.18471 11.3874C7.18159 11.3812 7.17846 11.3734 7.17377 11.3671C7.16909 11.3562 7.1644 11.3468 7.15815 11.3359C7.15346 11.3297 7.15034 11.3219 7.14565 11.3156C7.14096 11.3063 7.13471 11.2969 7.12846 11.2875C7.12221 11.2797 7.11752 11.2735 7.11127 11.2657C7.10659 11.2579 7.10034 11.2501 7.09409 11.2438C7.08627 11.2345 7.08002 11.2267 7.07221 11.2188C7.06909 11.2157 7.06596 11.211 7.06284 11.2079C6.70034 10.8411 6.30815 10.4914 5.93002 10.1543C5.1644 9.47212 4.44096 8.82743 3.91596 8.02821C3.50659 7.3929 3.29409 6.88558 3.24721 6.4329C3.19565 5.92558 3.34877 5.44636 3.72846 4.92187C4.82221 3.39836 5.8019 2.20421 7.59565 1.83895C8.48003 1.65787 8.9269 1.77963 9.36909 2.32597C10.2285 3.38119 11.1331 4.07739 12.7597 4.05085C14.3425 4.02587 15.9691 4.07426 17.541 4.12265C17.8832 4.13358 18.2238 4.14295 18.5675 4.15231C19.7878 4.18353 21.0285 4.21943 22.2269 4.25534C24.3894 4.31778 26.6253 4.38334 28.8269 4.41924C30.1113 4.44265 32.8753 4.46763 36.0738 4.49729C41.641 4.5488 48.5706 4.6128 50.8285 4.69241C50.8363 4.69397 50.8425 4.69241 50.8503 4.69241C50.8581 4.69241 50.8644 4.69397 50.8706 4.69241C53.5988 4.59875 56.0925 4.8126 58.7316 5.04051C59.1035 5.07329 59.48 5.10607 59.8613 5.13729C59.8628 5.13729 59.8644 5.13729 59.866 5.13885C61.291 5.24812 63.0753 5.70392 63.7753 5.89436C63.8222 5.90685 63.8675 5.91934 63.9144 5.93026C64.191 6.00363 64.43 6.06607 64.6753 6.22997C64.8941 6.37514 65.1832 6.36109 65.3863 6.19563C65.7847 5.87095 66.1081 5.5088 66.4222 5.15914C66.7128 4.83602 66.9863 4.53007 67.2956 4.28031C67.9816 3.73553 68.5972 3.62939 69.3519 3.92441C69.3535 3.92441 69.3566 3.92597 69.3581 3.92597C70.3988 4.3209 71.1222 4.80012 71.6347 5.43387C72.1128 6.02704 72.1535 6.83563 72.1535 7.68012C72.1456 8.98353 71.7488 10.0169 70.9394 10.8395C70.6691 11.1096 70.4066 11.3921 70.1519 11.6653C69.6957 12.1554 69.2628 12.619 68.7816 13.0296C68.78 13.0311 68.7769 13.0327 68.7753 13.0343C68.3222 13.4308 68.1738 13.9693 68.3769 14.4782C68.6472 15.1947 69.6082 17.9186 70.7753 23.2212C71.93 28.4661 72.8988 34.4212 73.6535 40.9227C73.6847 41.3301 73.7128 41.6563 73.7363 41.9201C73.83 43.0347 73.8316 43.0362 73.6644 43.8417Z" clip-rule="evenodd"/></g></svg>